<svg width="23" height="23" viewBox="0 0 23 23" fill="none" xmlns="http://www.w3.org/2000/svg">
<path d="M3.83333 1.91664V21.0833L5.75 20.125L7.66666 21.0833L9.58333 20.125L11.5 21.0833L13.4167 20.125L15.3333 21.0833L17.25 20.125L19.1667 21.0833V1.91664L17.25 2.87497L15.3333 1.91664L13.4167 2.87497L11.5 1.91664L9.58333 2.87497L7.66666 1.91664L5.75 2.87497L3.83333 1.91664Z" stroke="#16A34A" stroke-width="1.88235" stroke-linecap="round" stroke-linejoin="round"/>
<path d="M15.3333 7.6666H9.58332C9.07499 7.6666 8.58748 7.86854 8.22804 8.22798C7.86859 8.58743 7.66666 9.07494 7.66666 9.58327C7.66666 10.0916 7.86859 10.5791 8.22804 10.9386C8.58748 11.298 9.07499 11.4999 9.58332 11.4999H13.4167C13.925 11.4999 14.4125 11.7019 14.7719 12.0613C15.1314 12.4208 15.3333 12.9083 15.3333 13.4166C15.3333 13.9249 15.1314 14.4124 14.7719 14.7719C14.4125 15.1313 13.925 15.3333 13.4167 15.3333H7.66666" stroke="#16A34A" stroke-width="1.88235" stroke-linecap="round" stroke-linejoin="round"/>
<path d="M11.5 16.7708V6.22913" stroke="#16A34A" stroke-width="1.88235" stroke-linecap="round" stroke-linejoin="round"/>
</svg>
