<svg width="23" height="23" viewBox="0 0 23 23" fill="none" xmlns="http://www.w3.org/2000/svg">
<path d="M13.9303 20.7824C13.9667 20.8732 14.03 20.9506 14.1117 21.0043C14.1934 21.058 14.2896 21.0855 14.3873 21.083C14.485 21.0805 14.5797 21.0481 14.6585 20.9903C14.7373 20.9325 14.7966 20.8519 14.8283 20.7594L21.0575 2.55109C21.0881 2.46617 21.094 2.37428 21.0743 2.28616C21.0547 2.19804 21.0103 2.11734 20.9465 2.0535C20.8827 1.98966 20.802 1.94532 20.7138 1.92567C20.6257 1.90602 20.5338 1.91187 20.4489 1.94254L2.24058 8.17171C2.1481 8.20343 2.06753 8.26267 2.00969 8.3415C1.95185 8.42032 1.91951 8.51496 1.91701 8.61269C1.9145 8.71043 1.94196 8.8066 1.99569 8.88828C2.04941 8.96996 2.12684 9.03326 2.21758 9.06967L9.81716 12.1172C10.0574 12.2134 10.2757 12.3572 10.4588 12.54C10.642 12.7228 10.7862 12.9408 10.8828 13.1809L13.9303 20.7824Z" stroke="#16A34A" stroke-width="1.88235" stroke-linecap="round" stroke-linejoin="round"/>
<path d="M20.9434 2.05754L10.4592 12.5407" stroke="#16A34A" stroke-width="1.88235" stroke-linecap="round" stroke-linejoin="round"/>
</svg>
