<svg width="32" height="32" viewBox="0 0 32 32" fill="none" xmlns="http://www.w3.org/2000/svg">
<path d="M26.6667 10.6667H5.33333C4.59695 10.6667 4 11.2636 4 12V14.6667C4 15.4031 4.59695 16 5.33333 16H26.6667C27.403 16 28 15.4031 28 14.6667V12C28 11.2636 27.403 10.6667 26.6667 10.6667Z" stroke="white" stroke-width="2.66667" stroke-linecap="round" stroke-linejoin="round"/>
<path d="M16 10.6667V28" stroke="white" stroke-width="2.66667" stroke-linecap="round" stroke-linejoin="round"/>
<path d="M25.3333 16V25.3333C25.3333 26.0406 25.0524 26.7189 24.5523 27.219C24.0522 27.719 23.3739 28 22.6667 28H9.33332C8.62608 28 7.9478 27.719 7.4477 27.219C6.94761 26.7189 6.66666 26.0406 6.66666 25.3333V16" stroke="white" stroke-width="2.66667" stroke-linecap="round" stroke-linejoin="round"/>
<path d="M9.99999 10.6666C9.11593 10.6666 8.26809 10.3155 7.64297 9.69033C7.01785 9.06521 6.66666 8.21736 6.66666 7.33331C6.66666 6.44925 7.01785 5.6014 7.64297 4.97628C8.26809 4.35116 9.11593 3.99997 9.99999 3.99997C11.2862 3.97756 12.5467 4.60165 13.617 5.79085C14.6873 6.98006 15.5177 8.67918 16 10.6666C16.4823 8.67918 17.3127 6.98006 18.383 5.79085C19.4533 4.60165 20.7137 3.97756 22 3.99997C22.884 3.99997 23.7319 4.35116 24.357 4.97628C24.9821 5.6014 25.3333 6.44925 25.3333 7.33331C25.3333 8.21736 24.9821 9.06521 24.357 9.69033C23.7319 10.3155 22.884 10.6666 22 10.6666" stroke="white" stroke-width="2.66667" stroke-linecap="round" stroke-linejoin="round"/>
</svg>
