<svg width="23" height="23" viewBox="0 0 23 23" fill="none" xmlns="http://www.w3.org/2000/svg">
<path d="M18.2083 6.70833V3.83334C18.2083 3.57917 18.1074 3.33541 17.9276 3.15569C17.7479 2.97597 17.5042 2.875 17.25 2.875H4.79165C4.28332 2.875 3.79581 3.07694 3.43636 3.43638C3.07692 3.79583 2.87499 4.28334 2.87499 4.79167C2.87499 5.3 3.07692 5.78751 3.43636 6.14696C3.79581 6.5064 4.28332 6.70833 4.79165 6.70833H19.1667C19.4208 6.70833 19.6646 6.8093 19.8443 6.98902C20.024 7.16875 20.125 7.4125 20.125 7.66667V11.5M20.125 11.5H17.25C16.7417 11.5 16.2541 11.7019 15.8947 12.0614C15.5353 12.4208 15.3333 12.9083 15.3333 13.4167C15.3333 13.925 15.5353 14.4125 15.8947 14.772C16.2541 15.1314 16.7417 15.3333 17.25 15.3333H20.125C20.3791 15.3333 20.6229 15.2324 20.8026 15.0526C20.9824 14.8729 21.0833 14.6292 21.0833 14.375V12.4583C21.0833 12.2042 20.9824 11.9604 20.8026 11.7807C20.6229 11.601 20.3791 11.5 20.125 11.5Z" stroke="#16A34A" stroke-width="1.88235" stroke-linecap="round" stroke-linejoin="round"/>
<path d="M2.87499 4.79165V18.2083C2.87499 18.7166 3.07692 19.2042 3.43636 19.5636C3.79581 19.9231 4.28332 20.125 4.79165 20.125H19.1666C19.4208 20.125 19.6646 20.024 19.8443 19.8443C20.024 19.6646 20.125 19.4208 20.125 19.1667V15.3333" stroke="#16A34A" stroke-width="1.88235" stroke-linecap="round" stroke-linejoin="round"/>
</svg>
