<svg width="94" height="33" viewBox="0 0 94 33" fill="none" xmlns="http://www.w3.org/2000/svg">
<path d="M12.562 0.5026H86.454C87.2867 0.5026 87.9618 1.17766 87.9618 2.0104V15.5433C87.9619 16.0161 88.0952 16.4779 88.3446 16.8764L88.4585 17.0432L93.1989 23.4131C93.5716 23.914 93.5957 24.5888 93.2695 25.1113L93.1989 25.2134L88.6637 31.3075C88.3792 31.6896 87.9308 31.9151 87.4543 31.9151H12.5905C12.1685 31.9151 11.7686 31.7385 11.4852 31.4331L11.3713 31.2937L0.791171 16.7468C0.423818 16.2417 0.40793 15.5666 0.740126 15.0476L0.810804 14.9465L11.3634 1.09649C11.613 0.769156 11.9834 0.559586 12.3873 0.512416L12.562 0.5026Z" fill="#191919" stroke="#262626"/>
</svg>
