<svg width="17" height="17" viewBox="0 0 17 17" fill="none" xmlns="http://www.w3.org/2000/svg">
<path d="M2.83334 1.41669V15.5834L4.25 14.875L5.66667 15.5834L7.08334 14.875L8.5 15.5834L9.91667 14.875L11.3333 15.5834L12.75 14.875L14.1667 15.5834V1.41669L12.75 2.12502L11.3333 1.41669L9.91667 2.12502L8.5 1.41669L7.08334 2.12502L5.66667 1.41669L4.25 2.12502L2.83334 1.41669Z" stroke="#D4D4D8" stroke-width="1.33333" stroke-linecap="round" stroke-linejoin="round"/>
<path d="M11.3333 5.66664H7.08334C6.70761 5.66664 6.34728 5.8159 6.0816 6.08157C5.81593 6.34725 5.66667 6.70758 5.66667 7.08331C5.66667 7.45903 5.81593 7.81936 6.0816 8.08504C6.34728 8.35072 6.70761 8.49997 7.08334 8.49997H9.91667C10.2924 8.49997 10.6527 8.64923 10.9184 8.91491C11.1841 9.18058 11.3333 9.54092 11.3333 9.91664C11.3333 10.2924 11.1841 10.6527 10.9184 10.9184C10.6527 11.1841 10.2924 11.3333 9.91667 11.3333H5.66667" stroke="#D4D4D8" stroke-width="1.33333" stroke-linecap="round" stroke-linejoin="round"/>
<path d="M8.49999 12.3958V4.60415" stroke="#D4D4D8" stroke-width="1.33333" stroke-linecap="round" stroke-linejoin="round"/>
</svg>
