<svg width="23" height="23" viewBox="0 0 23 23" fill="none" xmlns="http://www.w3.org/2000/svg">
<path d="M19.1666 7.6666H3.83332C3.30404 7.6666 2.87498 8.09566 2.87498 8.62494V10.5416C2.87498 11.0709 3.30404 11.4999 3.83332 11.4999H19.1666C19.6959 11.4999 20.125 11.0709 20.125 10.5416V8.62494C20.125 8.09566 19.6959 7.6666 19.1666 7.6666Z" stroke="#16A34A" stroke-width="1.88235" stroke-linecap="round" stroke-linejoin="round"/>
<path d="M11.5 7.6666V20.1249" stroke="#16A34A" stroke-width="1.88235" stroke-linecap="round" stroke-linejoin="round"/>
<path d="M18.2083 11.5V18.2083C18.2083 18.7167 18.0064 19.2042 17.647 19.5636C17.2875 19.9231 16.8 20.125 16.2917 20.125H6.70835C6.20002 20.125 5.7125 19.9231 5.35306 19.5636C4.99362 19.2042 4.79168 18.7167 4.79168 18.2083V11.5" stroke="#16A34A" stroke-width="1.88235" stroke-linecap="round" stroke-linejoin="round"/>
<path d="M7.18751 7.66666C6.5521 7.66666 5.94271 7.41424 5.4934 6.96494C5.0441 6.51563 4.79168 5.90624 4.79168 5.27083C4.79168 4.63542 5.0441 4.02603 5.4934 3.57672C5.94271 3.12742 6.5521 2.875 7.18751 2.875C8.112 2.85889 9.01795 3.30746 9.78722 4.16219C10.5565 5.01693 11.1534 6.23817 11.5 7.66666C11.8467 6.23817 12.4435 5.01693 13.2128 4.16219C13.9821 3.30746 14.888 2.85889 15.8125 2.875C16.4479 2.875 17.0573 3.12742 17.5066 3.57672C17.9559 4.02603 18.2083 4.63542 18.2083 5.27083C18.2083 5.90624 17.9559 6.51563 17.5066 6.96494C17.0573 7.41424 16.4479 7.66666 15.8125 7.66666" stroke="#16A34A" stroke-width="1.88235" stroke-linecap="round" stroke-linejoin="round"/>
</svg>
