<svg width="16" height="16" viewBox="0 0 16 16" fill="none" xmlns="http://www.w3.org/2000/svg">
<path d="M14.6667 7.99998H13.0133C12.722 7.99936 12.4384 8.09418 12.2061 8.26996C11.9737 8.44573 11.8053 8.69278 11.7267 8.97331L10.16 14.5466C10.1499 14.5813 10.1288 14.6117 10.1 14.6333C10.0711 14.655 10.0361 14.6666 10 14.6666C9.96394 14.6666 9.92885 14.655 9.9 14.6333C9.87115 14.6117 9.8501 14.5813 9.84 14.5466L6.16 1.45331C6.1499 1.41869 6.12885 1.38828 6.1 1.36665C6.07115 1.34501 6.03606 1.33331 6 1.33331C5.96394 1.33331 5.92885 1.34501 5.9 1.36665C5.87115 1.38828 5.8501 1.41869 5.84 1.45331L4.27333 7.02665C4.19498 7.30608 4.02759 7.55232 3.79657 7.72799C3.56556 7.90365 3.28355 7.99915 2.99333 7.99998H1.33333" stroke="#16A34A" stroke-width="1.33333" stroke-linecap="round" stroke-linejoin="round"/>
</svg>
