<svg width="211" height="14" viewBox="0 0 211 14" fill="none" xmlns="http://www.w3.org/2000/svg">
<path d="M9.125 10.0703H3.96094L2.61719 13H0.65625L6.625 0.179688L12.3828 13H10.3906L9.125 10.0703ZM8.38281 8.35938L6.59375 4.25781L4.71875 8.35938H8.38281Z" fill="#B5D911"/>
<path d="M16.7812 0.9375V11.2891H20.3281V13H14.9609V0.9375H16.7812Z" fill="#B5D911"/>
<path d="M35.3203 6.71875H40.3047V7.11719C40.3047 8.02344 40.1979 8.82552 39.9844 9.52344C39.776 10.1693 39.4245 10.7734 38.9297 11.3359C37.8099 12.5964 36.3854 13.2266 34.6562 13.2266C32.9688 13.2266 31.5234 12.6172 30.3203 11.3984C29.1172 10.1745 28.5156 8.70573 28.5156 6.99219C28.5156 5.24219 29.1276 3.75781 30.3516 2.53906C31.5755 1.3151 33.0651 0.703125 34.8203 0.703125C35.763 0.703125 36.6432 0.895833 37.4609 1.28125C38.2422 1.66667 39.0104 2.29167 39.7656 3.15625L38.4688 4.39844C37.4792 3.08073 36.2734 2.42188 34.8516 2.42188C33.5755 2.42188 32.5052 2.86198 31.6406 3.74219C30.776 4.60677 30.3438 5.6901 30.3438 6.99219C30.3438 8.33594 30.8255 9.44271 31.7891 10.3125C32.6901 11.1198 33.6667 11.5234 34.7188 11.5234C35.6146 11.5234 36.4193 11.2214 37.1328 10.6172C37.8464 10.0078 38.2448 9.27865 38.3281 8.42969H35.3203V6.71875Z" fill="#B5D911"/>
<path d="M45.4844 5.65625H50.6875V0.9375H52.5078V13H50.6875V7.36719H45.4844V13H43.6641V0.9375H45.4844V5.65625Z" fill="#B5D911"/>
<path d="M58.2812 0.9375V8.20312C58.2812 9.23958 58.4505 9.9974 58.7891 10.4766C59.2943 11.1693 60.0052 11.5156 60.9219 11.5156C61.8438 11.5156 62.5573 11.1693 63.0625 10.4766C63.401 10.013 63.5703 9.25521 63.5703 8.20312V0.9375H65.3906V8.70312C65.3906 9.97396 64.9948 11.0208 64.2031 11.8438C63.3125 12.7604 62.2188 13.2188 60.9219 13.2188C59.625 13.2188 58.5339 12.7604 57.6484 11.8438C56.8568 11.0208 56.4609 9.97396 56.4609 8.70312V0.9375H58.2812Z" fill="#B5D911"/>
<path d="M73.4375 7.85938L77.1719 13H74.9453L71.5 8.0625H71.1719V13H69.3516V0.9375H71.4844C73.0781 0.9375 74.2292 1.23698 74.9375 1.83594C75.7188 2.5026 76.1094 3.38281 76.1094 4.47656C76.1094 5.33073 75.8646 6.0651 75.375 6.67969C74.8854 7.29427 74.2396 7.6875 73.4375 7.85938ZM71.1719 6.47656H71.75C73.474 6.47656 74.3359 5.81771 74.3359 4.5C74.3359 3.26562 73.4974 2.64844 71.8203 2.64844H71.1719V6.47656Z" fill="#B5D911"/>
<path d="M87.1406 10.0703H81.9766L80.6328 13H78.6719L84.6406 0.179688L90.3984 13H88.4062L87.1406 10.0703ZM86.3984 8.35938L84.6094 4.25781L82.7344 8.35938H86.3984Z" fill="#B5D911"/>
<path d="M94.7969 0.9375V13H92.9766V0.9375H94.7969Z" fill="#B5D911"/>
<path d="M102.844 7.85938L106.578 13H104.352L100.906 8.0625H100.578V13H98.7578V0.9375H100.891C102.484 0.9375 103.635 1.23698 104.344 1.83594C105.125 2.5026 105.516 3.38281 105.516 4.47656C105.516 5.33073 105.271 6.0651 104.781 6.67969C104.292 7.29427 103.646 7.6875 102.844 7.85938ZM100.578 6.47656H101.156C102.88 6.47656 103.742 5.81771 103.742 4.5C103.742 3.26562 102.904 2.64844 101.227 2.64844H100.578V6.47656Z" fill="#B5D911"/>
<path d="M122.117 2.64844H117.281V5.54688H121.977V7.25781H117.281V11.2891H122.117V13H115.461V0.9375H122.117V2.64844Z" fill="white"/>
<path d="M128.094 6.69531L124.773 0.9375H126.844L129.148 5.02344L131.57 0.9375H133.656L130.18 6.69531L133.828 13H131.789L129.117 8.38281L126.367 13H124.305L128.094 6.69531Z" fill="white"/>
<path d="M145.125 1.58594V3.74219C144.073 2.86198 142.984 2.42188 141.859 2.42188C140.62 2.42188 139.576 2.86719 138.727 3.75781C137.872 4.64323 137.445 5.72656 137.445 7.00781C137.445 8.27344 137.872 9.34115 138.727 10.2109C139.581 11.0807 140.628 11.5156 141.867 11.5156C142.508 11.5156 143.052 11.4115 143.5 11.2031C143.75 11.099 144.008 10.9583 144.273 10.7812C144.544 10.6042 144.828 10.3906 145.125 10.1406V12.3359C144.083 12.9245 142.99 13.2188 141.844 13.2188C140.12 13.2188 138.648 12.6172 137.43 11.4141C136.216 10.2005 135.609 8.73698 135.609 7.02344C135.609 5.48698 136.117 4.11719 137.133 2.91406C138.383 1.4401 140 0.703125 141.984 0.703125C143.068 0.703125 144.115 0.997396 145.125 1.58594Z" fill="white"/>
<path d="M150.656 5.65625H155.859V0.9375H157.68V13H155.859V7.36719H150.656V13H148.836V0.9375H150.656V5.65625Z" fill="white"/>
<path d="M168.719 10.0703H163.555L162.211 13H160.25L166.219 0.179688L171.977 13H169.984L168.719 10.0703ZM167.977 8.35938L166.188 4.25781L164.312 8.35938H167.977Z" fill="white"/>
<path d="M174.555 13V0.117188L183.352 9.32031V0.9375H185.172V13.7344L176.375 4.55469V13H174.555Z" fill="white"/>
<path d="M195.461 6.71875H200.445V7.11719C200.445 8.02344 200.339 8.82552 200.125 9.52344C199.917 10.1693 199.565 10.7734 199.07 11.3359C197.951 12.5964 196.526 13.2266 194.797 13.2266C193.109 13.2266 191.664 12.6172 190.461 11.3984C189.258 10.1745 188.656 8.70573 188.656 6.99219C188.656 5.24219 189.268 3.75781 190.492 2.53906C191.716 1.3151 193.206 0.703125 194.961 0.703125C195.904 0.703125 196.784 0.895833 197.602 1.28125C198.383 1.66667 199.151 2.29167 199.906 3.15625L198.609 4.39844C197.62 3.08073 196.414 2.42188 194.992 2.42188C193.716 2.42188 192.646 2.86198 191.781 3.74219C190.917 4.60677 190.484 5.6901 190.484 6.99219C190.484 8.33594 190.966 9.44271 191.93 10.3125C192.831 11.1198 193.807 11.5234 194.859 11.5234C195.755 11.5234 196.56 11.2214 197.273 10.6172C197.987 10.0078 198.385 9.27865 198.469 8.42969H195.461V6.71875Z" fill="white"/>
<path d="M210.461 2.64844H205.625V5.54688H210.32V7.25781H205.625V11.2891H210.461V13H203.805V0.9375H210.461V2.64844Z" fill="white"/>
</svg>
