<svg width="193" height="18" viewBox="0 0 193 18" fill="none" xmlns="http://www.w3.org/2000/svg">
<path fill-rule="evenodd" clip-rule="evenodd" d="M145.296 4.20267H139.606C138.919 4.279 137.546 5.01377 137.546 7.34227C137.546 9.67077 138.919 10.7107 139.606 10.9397H142.582V11.79H108.767V4.68513C108.767 4.58126 108.683 4.49706 108.579 4.49706H106.56C106.447 4.49706 106.36 4.59692 106.361 4.71036C106.364 5.06217 106.274 5.52218 105.889 5.54357C105.3 5.57627 103.272 5.21653 101.768 6.45927C100.264 7.70201 99.4458 9.61886 99.4458 10.8936V14.3736H145.108C145.212 14.3736 145.296 14.2893 145.296 14.1855V4.20267ZM142.582 6.29575V8.97745C141.83 9.07556 140.326 8.92513 140.326 7.53849C140.326 6.15186 141.83 6.13224 142.582 6.29575ZM105.614 11.79V8.52196C103.023 8.52196 102.276 10.1228 102.276 10.7434V11.79H105.614Z" fill="white"/>
<path d="M105.614 0C106.121 0 106.634 0.48888 106.634 1.00241V1.00987C106.634 1.86569 106.634 2.97868 105.614 2.97868C104.591 2.97868 104.367 1.81699 104.367 1.28396C104.367 0.750925 104.733 0 105.614 0Z" fill="white"/>
<path d="M102.816 0C103.322 0 103.836 0.48888 103.836 1.00241V1.00987C103.836 1.86569 103.836 2.97868 102.816 2.97868C101.793 2.97868 101.569 1.81699 101.569 1.28396C101.569 0.750925 101.935 0 102.816 0Z" fill="white"/>
<path d="M141.573 0C142.079 0 142.593 0.488879 142.593 1.00241V1.00988C142.593 1.8657 142.593 2.97868 141.573 2.97868C140.55 2.97868 140.326 1.81699 140.326 1.28396C140.326 0.750925 140.692 0 141.573 0Z" fill="white"/>
<path d="M147.526 2.60108C147.422 2.60108 147.338 2.68528 147.338 2.78915V14.1609C147.338 14.2648 147.422 14.349 147.526 14.349H149.937C150.041 14.349 150.126 14.2648 150.126 14.1609V2.78915C150.126 2.68528 150.041 2.60108 149.937 2.60108H147.526Z" fill="white"/>
<path fill-rule="evenodd" clip-rule="evenodd" d="M178.832 7.6987C179.055 7.01483 180.058 5.64205 182.284 5.62185C184.511 5.60165 189.672 5.61344 191.974 5.62185C192.138 5.61657 192.468 5.71972 192.484 6.17454C192.5 6.62936 192.491 11.5657 192.484 13.9771C192.504 14.1339 192.472 14.4515 192.19 14.4672C191.908 14.4829 167.466 14.4737 155.281 14.4672C155.235 14.9149 154.96 15.96 154.226 16.5588C153.493 17.1577 152.811 17.4397 152.562 17.5059H149.385V15.3062C149.364 15.2401 149.388 15.1077 149.644 15.1077H151.844C152.119 15.0669 152.669 14.7197 152.669 13.6565V5.90367H155.091C155.195 5.90367 155.279 5.98788 155.279 6.09175V11.5931H176.127V5.99315C176.127 5.88927 176.211 5.80507 176.315 5.80507H178.644C178.748 5.80507 178.832 5.88927 178.832 5.99314V7.6987ZM182.881 8.38946C181.475 8.42505 180.857 10.5401 180.724 11.5931H189.332V8.38946C187.768 8.37463 184.287 8.35387 182.881 8.38946Z" fill="white"/>
<path d="M93.6712 2.04533C93.6712 1.94146 93.587 1.85725 93.4831 1.85725H91.0013C90.8975 1.85725 90.8133 1.94146 90.8133 2.04533V13.236C90.8133 13.3399 90.8975 13.4241 91.0013 13.4241H93.4831C93.587 13.4241 93.6712 13.3399 93.6712 13.236V2.04533Z" fill="#BFE31A"/>
<path d="M89.1202 1.85725C89.2241 1.85725 89.3083 1.94146 89.3083 2.04533V13.236C89.3083 13.3399 89.2241 13.4241 89.1202 13.4241H44.4823C44.3651 14.4671 43.9893 16.5531 42.033 16.5531H38.7516L38.9977 14.6546H41.0869C41.4687 14.6312 42.2322 14.3171 42.2322 13.2483V5.15162H44.2942C44.3981 5.15162 44.4823 5.23582 44.4823 5.3397V11.1401H74.9923V8.61811C74.9923 6.56698 76.7919 3.87767 78.8199 3.87767C79.6605 3.87767 81.4011 3.86965 82.5481 3.87767V6.11554H79.6605C78.4681 6.11554 77.7596 7.27057 77.7596 8.61811V11.1401H86.6148V2.04533C86.6148 1.94146 86.699 1.85725 86.8029 1.85725H89.1202Z" fill="#BFE31A"/>
<path d="M5.73069 13.4241C5.61349 14.4671 5.3055 16.5642 3.27027 16.5642C1.23505 16.5642 0.527364 16.5531 0 16.5531L0.246103 14.6546H2.33533C2.71709 14.6312 3.4806 14.3171 3.4806 13.2483V5.15162H5.73069V11.1401H37.2189V5.64594C37.2189 5.54207 37.3031 5.45787 37.407 5.45787H39.5704C39.6742 5.45787 39.7584 5.54207 39.7584 5.64594V13.4241L5.73069 13.4241Z" fill="#BFE31A"/>
<path d="M26.9941 14.8179C27.4518 14.8179 27.9159 15.2598 27.9159 15.7239V15.7306C27.9159 16.5041 27.9159 17.51 26.9941 17.51C26.0696 17.51 25.867 16.4601 25.867 15.9783C25.867 15.4966 26.198 14.8179 26.9941 14.8179Z" fill="#BFE31A"/>
<path d="M24.4652 14.8179C24.9229 14.8179 25.3869 15.2598 25.3869 15.7239V15.7306C25.3869 16.5041 25.387 17.51 24.4652 17.51C23.5407 17.51 23.3381 16.4601 23.3381 15.9783C23.3381 15.4966 23.6691 14.8179 24.4652 14.8179Z" fill="#BFE31A"/>
<path d="M79.3051 0C79.7629 0 80.2269 0.44184 80.2269 0.905959V0.912705C80.2269 1.68618 80.2269 2.69207 79.3051 2.69207C78.3806 2.69207 78.178 1.64216 78.178 1.16042C78.178 0.678671 78.509 0 79.3051 0Z" fill="#BFE31A"/>
</svg>
