<svg width="206" height="69" viewBox="0 0 206 69" fill="none" xmlns="http://www.w3.org/2000/svg">
<path d="M7.11456 55.1668C10.7528 48.7242 19.0259 33.7762 25.5002 21.949C31.974 10.1224 37.5688 0.537633 37.9333 0.649786C38.2972 0.761328 41.2905 5.97581 44.5844 12.2368L50.5742 23.6209L52.76 19.2128C55.6077 13.4705 62.1064 6.91265 67.5982 4.23989C78.0046 -0.825254 88.937 -0.744191 99.3129 4.47577C106.583 8.13352 116.622 19.1415 115.457 22.1782C115.211 22.8206 113.875 23.0248 110.081 22.9986L105.033 22.9639L102.826 20.0619C100.297 16.7388 95.4473 13.3145 91.0143 11.7224C86.4947 10.0986 78.6611 10.2577 73.9476 12.0692C69.5542 13.757 63.0335 19.9303 60.9928 24.3341C55.3072 36.6038 60.4686 50.5668 72.9645 56.7187C76.7447 58.5796 77.3463 58.6905 83.6872 58.6905C89.9366 58.6905 90.6559 58.5637 94.0064 56.868C100.364 53.6509 105.559 47.702 107.439 41.4848L107.85 40.1274L96.3842 39.961L84.919 39.7952V35.2238V30.6524H115.7H146.481V35.2238V39.7952L132.226 40.1L117.971 40.4048L117.153 43.6041C114.936 52.2722 107.69 60.8811 98.9119 65.2733C93.698 67.8827 89.0644 68.9372 83.0905 68.8744C67.5689 68.7111 55.6278 59.4054 48.9029 42.2333C46.7818 36.8177 38.2161 21.128 37.5091 21.3638C36.9574 21.5473 26.7095 40.0494 26.7095 40.8613C26.7095 41.113 29.9668 41.319 33.9482 41.319H41.1869L43.4306 45.5882C44.6643 47.936 45.5048 50.1303 45.2988 50.4643C45.0702 50.8343 40.2324 51.072 32.9212 51.0726L20.919 51.0733L16.255 59.4536L11.5909 67.8333L6.04545 68.0089C2.40964 68.1235 0.5 67.9595 0.5 67.5328C0.5 67.1744 3.47631 61.6101 7.11456 55.1668Z" fill="#B5D911"/>
<path d="M120.089 10.1114C119.322 9.34526 119.053 2.20713 119.764 1.49703C119.987 1.27334 129.381 1.09901 140.64 1.10937C161.072 1.12888 161.111 1.13132 162.087 2.4808C162.624 3.22503 166.276 8.49619 170.204 14.1952C174.132 19.8943 177.534 24.626 177.765 24.7107C178.213 24.8753 180.225 21.9563 188.48 9.16667L193.693 1.09048H199.497C203.573 1.09048 205.3 1.30625 205.3 1.81459C205.3 2.21322 200.677 9.55067 195.028 18.1194C189.379 26.6887 184.588 34.0017 184.382 34.3699C184.176 34.7386 185.59 37.3443 187.525 40.1603C189.459 42.977 194.387 50.1401 198.476 56.0787C202.564 62.0179 205.91 67.1604 205.91 67.5072C205.91 67.8992 203.638 68.1381 199.911 68.1381H193.913L185.85 56.242C181.416 49.6994 177.556 44.4898 177.272 44.6653C176.988 44.8409 173.248 50.1974 168.961 56.5687L161.167 68.1539L140.414 67.9936L119.662 67.8333L119.48 63.6215C119.351 60.6635 119.533 59.2598 120.089 58.9069C120.524 58.6308 128.698 58.3955 138.252 58.3845L155.624 58.365L163.455 46.4738L171.286 34.5826L170.226 32.9222C169.643 32.0092 165.997 26.6679 162.123 21.0524L155.079 10.8429H137.95C125.44 10.8429 120.623 10.6454 120.089 10.1114Z" fill="#B5D911"/>
</svg>
